HIERARCHY
ROOT Hips
{
	OFFSET 0.000000 0.000000 0.000000
	CHANNELS 6 Xposition Yposition Zposition Zrotation Yrotation Xrotation 
	JOINT LeftUpLeg_virtual
	{
		OFFSET 0.000000 0.000000 0.000000
		CHANNELS 3 Zrotation Yrotation Xrotation
		JOINT LeftUpLeg
		{
			OFFSET 8.479694 -4.795517 -0.379053
			CHANNELS 3 Zrotation Yrotation Xrotation
			JOINT LeftLeg
			{
				OFFSET 0.485052 -32.551468 0.112863
				CHANNELS 3 Zrotation Yrotation Xrotation
				JOINT LeftFoot
				{
					OFFSET 0.438033 -32.635670 -3.012641
					CHANNELS 3 Zrotation Yrotation Xrotation
					JOINT LeftToeBase
					{
						OFFSET 0.970169 -13.225353 11.864223
						CHANNELS 3 Zrotation Yrotation Xrotation
						End Site
						{
							OFFSET 0.000000 0.000000 0.000000
						}
					}
				}
			}
		}
	}
	JOINT RightUpLeg_virtual
	{
		OFFSET 0.000000 0.000000 0.000000
		CHANNELS 3 Zrotation Yrotation Xrotation
		JOINT RightUpLeg
		{
			OFFSET -8.479694 -4.795517 -0.379053
			CHANNELS 3 Zrotation Yrotation Xrotation
			JOINT RightLeg
			{
				OFFSET -0.484100 -32.551483 0.112903
				CHANNELS 3 Zrotation Yrotation Xrotation
				JOINT RightFoot
				{
					OFFSET -0.438985 -32.635651 -3.012681
					CHANNELS 3 Zrotation Yrotation Xrotation
					JOINT RightToeBase
					{
						OFFSET -0.970169 -13.225354 11.864223
						CHANNELS 3 Zrotation Yrotation Xrotation
						End Site
						{
							OFFSET 0.000000 0.000000 0.000000
						}
					}
				}
			}
		}
	}
	JOINT Spine_virtual
	{
		OFFSET 0.000000 0.000000 0.000000
		CHANNELS 3 Zrotation Yrotation Xrotation
		JOINT Spine
		{
			OFFSET 0.000000 7.722015 1.166203
			CHANNELS 3 Zrotation Yrotation Xrotation
			JOINT Spine1
			{
				OFFSET 0.000000 12.024086 0.248766
				CHANNELS 3 Zrotation Yrotation Xrotation
				JOINT Spine2
				{
					OFFSET -0.000000 11.503036 -0.491240
					CHANNELS 3 Zrotation Yrotation Xrotation
					JOINT Neck_virtual
					{
						OFFSET 0.000000 0.000000 0.000000
						CHANNELS 3 Zrotation Yrotation Xrotation
						JOINT Neck
						{
							OFFSET 0.000000 18.430687 -3.123054
							CHANNELS 3 Zrotation Yrotation Xrotation
							JOINT Head
							{
								OFFSET -0.000000 9.051071 1.034021
								CHANNELS 3 Zrotation Yrotation Xrotation
								End Site
								{
									OFFSET 0.000000 0.000000 0.000000
								}
							}
						}
					}
					JOINT LeftShoulder_virtual
					{
						OFFSET 0.000000 0.000000 0.000000
						CHANNELS 3 Zrotation Yrotation Xrotation
						JOINT LeftShoulder
						{
							OFFSET 6.197824 13.665230 -4.064723
							CHANNELS 3 Zrotation Yrotation Xrotation
							JOINT LeftArm
							{
								OFFSET 7.778132 -0.187073 -1.709282
								CHANNELS 3 Zrotation Yrotation Xrotation
								JOINT LeftForeArm
								{
									OFFSET 21.954697 0.000000 -2.041093
									CHANNELS 3 Zrotation Yrotation Xrotation
									JOINT LeftHand
									{
										OFFSET 22.992908 0.000000 -0.870901
										CHANNELS 3 Zrotation Yrotation Xrotation
										End Site
										{
											OFFSET 0.000000 0.000000 0.000000
										}
									}
								}
							}
						}
					}
					JOINT RightShoulder_virtual
					{
						OFFSET 0.000000 0.000000 0.000000
						CHANNELS 3 Zrotation Yrotation Xrotation
						JOINT RightShoulder
						{
							OFFSET -6.197824 13.665230 -4.064723
							CHANNELS 3 Zrotation Yrotation Xrotation
							JOINT RightArm
							{
								OFFSET -7.778132 -0.187073 -1.709282
								CHANNELS 3 Zrotation Yrotation Xrotation
								JOINT RightForeArm
								{
									OFFSET -21.954697 0.000000 -2.041093
									CHANNELS 3 Zrotation Yrotation Xrotation
									JOINT RightHand
									{
										OFFSET -22.992908 0.000000 -0.870901
										CHANNELS 3 Zrotation Yrotation Xrotation
										End Site
										{
											OFFSET 0.000000 0.000000 0.000000
										}
									}
								}
							}
						}
					}
				}
			}
		}
	}
}
MOTION
Frames: 7
Frame Time: 0.033333
18.921169 80.880051 8.705526 179.616449 -25.508614 -179.584839 -4.222336 -1.704230 15.386461 7.470246 -3.324328 -20.691018 -0.397622 5.817311 25.752701 5.648041 -3.939357 -12.967540 0.000000 0.000000 0.000000 0.713773 -3.370559 17.982396 -4.976443 3.564881 -24.755240 1.230959 10.013742 33.921650 11.542307 2.040193 -12.922969 0.000000 0.000000 0.000000 2.193808 1.202443 -4.482787 -0.440451 -8.010148 -0.933518 4.768890 -1.591537 3.520199 0.085219 0.049723 0.084462 4.564055 0.095918 7.193699 1.350342 -3.665499 14.261005 0.000000 0.000000 0.000000 6.810123 1.016066 2.370865 -30.182988 -2.612863 -7.854204 5.250719 75.074994 -11.917825 -167.643578 -35.037962 -174.626791 0.000000 0.000000 0.000000 0.466709 2.934017 1.260386 26.284281 40.253109 13.013700 69.407296 -49.893958 -131.064186 179.851558 49.818263 -166.615266 0.000000 0.000000 0.000000 
18.999420 80.869629 8.977223 179.639275 -25.431311 -179.508149 -4.120880 -1.327879 15.614181 7.277254 -3.129982 -20.862118 -0.526804 6.143203 26.019911 5.625424 -4.182130 -13.054680 0.000000 0.000000 0.000000 0.737640 -3.152018 18.208506 -4.924258 3.676790 -24.774896 1.048868 10.307769 33.545067 11.217338 1.738721 -13.100330 0.000000 0.000000 0.000000 2.381821 1.681226 -3.897511 -0.650038 -7.956981 -0.971349 4.775898 -1.559053 3.476943 0.033504 0.091574 0.073567 4.688928 0.228823 7.431117 1.554227 -3.872047 14.322648 0.000000 0.000000 0.000000 6.881774 1.066242 2.534493 -30.536755 -2.273558 -7.702777 3.756867 75.562888 -13.056714 -167.681773 -35.205100 -174.587176 0.000000 0.000000 0.000000 0.622844 3.094404 1.502756 26.051552 39.910831 12.910489 70.122089 -49.582560 -131.801272 -179.323447 51.173775 -165.751670 0.000000 0.000000 0.000000 
19.048201 80.845474 9.286456 179.694504 -25.399660 -179.515936 -4.002049 -1.084319 15.676659 7.241783 -3.096602 -21.280158 -0.551533 6.183701 26.165852 5.732720 -4.362324 -13.184327 0.000000 0.000000 0.000000 0.542327 -2.765748 18.275974 -4.715918 4.070387 -25.182132 0.954510 10.221853 33.710057 10.887853 1.591969 -13.080789 0.000000 0.000000 0.000000 2.443765 1.726133 -3.130910 -0.813795 -7.948963 -1.092231 4.922657 -1.376649 3.232746 0.020872 0.055015 0.027628 4.736054 0.356576 7.246328 1.673049 -4.119310 13.876547 0.000000 0.000000 0.000000 6.932510 1.414261 2.452427 -30.613400 -2.169818 -7.506633 -0.128393 75.922566 -16.566293 -167.872690 -35.632291 -174.393868 0.000000 0.000000 0.000000 0.679471 3.385024 1.541786 26.232359 39.921336 13.411706 70.975986 -49.989649 -132.920467 -178.583957 52.740740 -164.837094 0.000000 0.000000 0.000000 
19.093231 80.831009 9.535957 179.742903 -25.256110 -179.545155 -3.927981 -0.884511 15.866094 7.191913 -3.105509 -21.728604 -0.573012 6.180762 26.308200 5.950106 -4.439728 -13.276806 0.000000 0.000000 0.000000 0.517567 -2.451051 18.547789 -4.692708 4.243570 -25.581242 0.898622 10.216754 33.690270 10.613763 1.614668 -13.108326 0.000000 0.000000 0.000000 2.479168 1.918852 -2.270537 -1.202534 -8.007587 -1.210668 5.111253 -1.191943 2.781655 0.019967 0.058891 0.067609 4.823110 0.508187 6.806681 1.717695 -4.402549 13.509899 0.000000 0.000000 0.000000 7.015732 1.588001 2.110805 -30.734366 -2.633427 -7.001053 -3.247477 75.540157 -19.506411 -167.953559 -36.873715 -174.017456 0.000000 0.000000 0.000000 0.817108 3.554201 1.174679 26.881488 39.907409 14.278147 72.351402 -50.630591 -134.339302 -177.961945 53.486395 -163.957216 0.000000 0.000000 0.000000 
19.128242 80.831474 9.780968 179.767765 -25.116528 -179.606299 -3.916797 -0.691327 16.116625 7.124524 -3.063092 -22.191157 -0.588383 6.071642 26.407629 6.154625 -4.485918 -13.437243 0.000000 0.000000 0.000000 0.514385 -2.131050 18.899610 -4.778380 4.411618 -25.855906 0.802233 10.026941 33.491587 10.341005 1.732022 -13.155864 0.000000 0.000000 0.000000 2.417536 2.089585 -1.331389 -1.749189 -8.308059 -1.260378 5.335880 -1.096936 2.166062 0.024066 0.027818 0.089551 4.928070 0.680773 6.246864 1.678059 -4.607755 12.942593 0.000000 0.000000 0.000000 7.226718 1.784625 1.728994 -30.777990 -3.364831 -6.479605 -3.591273 74.121684 -19.684621 -167.920870 -38.734645 -173.597071 0.000000 0.000000 0.000000 1.077664 3.740094 0.777543 27.827874 40.029143 15.340904 73.718061 -50.718085 -136.013191 -177.505920 53.142765 -163.355312 0.000000 0.000000 0.000000 
19.204611 80.846703 10.041915 179.785127 -25.150701 -179.722249 -3.960664 -0.742932 16.302792 7.068770 -2.729243 -22.589403 -0.616871 5.810652 26.466138 6.226102 -4.592644 -13.614366 0.000000 0.000000 0.000000 0.516871 -1.906632 19.067836 -4.875920 4.773895 -25.935044 0.654292 9.636579 33.157877 10.019882 1.850433 -13.210050 0.000000 0.000000 0.000000 2.377444 2.196425 -0.664308 -2.316660 -8.645788 -0.999767 5.544029 -1.030815 1.545679 -0.018177 0.061643 0.089709 5.216347 0.675934 5.518820 1.670827 -4.736198 12.244349 0.000000 0.000000 0.000000 7.559435 1.591456 1.185689 -30.731326 -4.359595 -5.695604 -2.378788 72.010835 -17.992132 -167.521714 -40.741443 -173.348330 0.000000 0.000000 0.000000 1.381720 3.591742 0.143988 28.706981 39.991174 16.202488 73.811956 -50.263079 -137.305094 -177.350971 52.037661 -163.321940 0.000000 0.000000 0.000000 
19.365265 80.872025 10.293978 179.831887 -25.334879 -179.683467 -3.974565 -1.145565 16.222784 7.053467 -2.144664 -22.689598 -0.637085 5.554903 26.526653 6.238577 -4.648526 -13.707823 0.000000 0.000000 0.000000 0.542882 -2.078473 18.850263 -4.890214 5.126164 -25.827879 0.582574 9.395162 32.875668 9.788514 2.030012 -13.175805 0.000000 0.000000 0.000000 2.343664 1.922576 -0.554362 -2.768685 -9.052068 -0.400067 5.648575 -1.160912 1.111921 -0.013598 0.004083 0.035789 5.358529 0.651357 4.784582 1.390047 -4.498431 11.256010 0.000000 0.000000 0.000000 7.799840 1.583194 0.660932 -30.876540 -4.686607 -5.186028 0.078170 70.372996 -14.738986 -167.074104 -42.413736 -172.978038 0.000000 0.000000 0.000000 1.550022 3.482227 -0.482869 29.129295 40.273784 16.770710 73.012912 -49.439573 -137.992661 -177.002030 50.534801 -163.313908 0.000000 0.000000 0.000000 
